<svg width="57" height="57" viewBox="0 0 57 57" fill="none" xmlns="http://www.w3.org/2000/svg">
<path d="M56.5026 0H0.0896912V56.4129H56.5026V0Z" fill="white"/>
<path d="M29.4173 5.38123C28.5265 5.26042 27.6211 5.11328 26.7267 5.20185C25.5864 5.31476 24.475 5.68041 23.4082 6.09872C22.1508 6.59178 20.7946 7.04634 19.8208 7.98216C19.1737 8.60393 18.8954 9.52096 18.4755 10.314C17.9937 11.2239 17.4445 12.1139 17.1302 13.0943C16.8061 14.1052 16.6967 15.1769 16.592 16.2333C16.4859 17.3047 16.4285 18.3879 16.5024 19.462C16.5273 19.8249 16.7794 20.1879 16.6817 20.5383C16.6078 20.8038 16.2602 20.9164 16.1436 21.1661C15.9897 21.4956 15.9742 21.8788 15.9642 22.2423C15.9421 23.0542 16.0532 23.872 16.2333 24.6639C16.3738 25.2816 16.5856 25.8872 16.8611 26.4576C17.1533 27.0626 17.3643 27.811 17.9373 28.1617C18.219 28.334 18.6812 28.0274 18.9239 28.2514C19.5704 28.8481 19.1446 30.0025 19.3723 30.8523C19.529 31.437 19.7546 32.003 20.0001 32.5563C20.2877 33.2041 20.8125 33.7528 20.9867 34.4397C21.5012 36.4684 21.6685 38.7104 21.0764 40.7178C20.8934 41.3381 20.485 41.9042 20.0001 42.3322C15.0889 46.6677 7.56505 47.0641 2.42155 51.1215C1.65519 51.726 0.950919 52.4791 0.538116 53.3636C0.101594 54.2989 0 56.413 0 56.413H56.5026C56.5026 56.413 56.4568 54.8311 56.2336 54.0811C56.0429 53.4404 55.7454 52.8164 55.3367 52.2874C54.7538 51.533 53.9752 50.9362 53.1842 50.404C47.9375 46.8736 40.7521 46.3079 36.2334 41.8837C35.8225 41.4814 35.5649 40.9172 35.4263 40.3591C35.0371 38.7923 34.9913 37.0706 35.4263 35.516C35.6901 34.5729 36.6126 33.9237 36.9509 33.0048C37.2753 32.1238 37.2158 31.1451 37.3994 30.2245C37.5256 29.5916 37.476 28.8685 37.8478 28.341C38.2587 27.7582 39.2099 27.7428 39.6415 27.1751C40.0021 26.701 40.0313 26.048 40.1796 25.4711C40.3694 24.7329 40.553 23.9874 40.6281 23.2289C40.6723 22.7827 40.7858 22.3034 40.6281 21.8836C40.5163 21.5861 40.1042 21.4664 40.0003 21.1661C39.6283 20.091 40.2032 18.8954 40.1796 17.758C40.1466 16.1669 40.1241 14.5468 39.7312 13.0046C39.3939 11.6808 38.94 10.328 38.1169 9.23777C37.3741 8.25403 36.3303 7.49381 35.2469 6.90591C34.391 6.44147 33.4083 6.25709 32.4666 6.00906C31.4631 5.74474 30.4456 5.52072 29.4173 5.38125V5.38123Z" fill="#CFD0D2"/>
</svg>
