<svg xmlns="http://www.w3.org/2000/svg" xmlns:xlink="http://www.w3.org/1999/xlink" viewBox="0 0 3000 2000"><defs><style>.cls-1{fill:url(#linear-gradient);}.cls-2,.cls-3{fill:#fff;}.cls-3{opacity:0.5;}.cls-4,.cls-5,.cls-6,.cls-7,.cls-8{fill-rule:evenodd;opacity:0.1;}.cls-4{fill:url(#linear-gradient-2);}.cls-5{fill:url(#linear-gradient-3);}.cls-6{fill:url(#linear-gradient-4);}.cls-7{fill:url(#linear-gradient-5);}.cls-8{fill:url(#linear-gradient-6);}.cls-9{fill:#095e72;}.cls-10{fill:#05424c;}.cls-11{fill:#03272b;}.cls-12{fill:#031d1e;}</style><linearGradient id="linear-gradient" x1="1500" y1="2000" x2="1500" gradientUnits="userSpaceOnUse"><stop offset="0" stop-color="#339ba6"/><stop offset="0.63" stop-color="#1a3c6e"/><stop offset="0.99" stop-color="#0f1f36"/></linearGradient><linearGradient id="linear-gradient-2" x1="1207" y1="1142.38" x2="1207" y2="1347.81" gradientUnits="userSpaceOnUse"><stop offset="0" stop-color="#fff"/><stop offset="0.22" stop-color="#fff" stop-opacity="0.76"/><stop offset="0.6" stop-color="#fff" stop-opacity="0.36"/><stop offset="0.87" stop-color="#fff" stop-opacity="0.1"/><stop offset="1" stop-color="#fff" stop-opacity="0"/></linearGradient><linearGradient id="linear-gradient-3" x1="642.98" y1="1105.5" x2="642.98" y2="1201.42" xlink:href="#linear-gradient-2"/><linearGradient id="linear-gradient-4" x1="1743.94" y1="1162.5" x2="1743.94" y2="1240.12" xlink:href="#linear-gradient-2"/><linearGradient id="linear-gradient-5" x1="2655.72" y1="1097.15" x2="2655.72" y2="1301.37" xlink:href="#linear-gradient-2"/><linearGradient id="linear-gradient-6" x1="2042.98" y1="1330.69" x2="2042.98" y2="1437.77" xlink:href="#linear-gradient-2"/></defs><title>Night Sky 2</title><g id="Layer_2" data-name="Layer 2"><g id="Layer_1-2" data-name="Layer 1"><rect class="cls-1" width="3000" height="2000"/><circle class="cls-2" cx="1245.73" cy="188.45" r="4.7"/><circle class="cls-2" cx="817.2" cy="216.47" r="3.16"/><circle class="cls-3" cx="2728.74" cy="476.29" r="3.16"/><circle class="cls-3" cx="2456.74" cy="933.29" r="3.16"/><circle class="cls-2" cx="2247.99" cy="723.44" r="3.16"/><circle class="cls-3" cx="597.99" cy="936.44" r="3.16"/><circle class="cls-3" cx="424.99" cy="719.44" r="3.16"/><circle class="cls-3" cx="1858.99" cy="190.44" r="3.16"/><circle class="cls-3" cx="1744.29" cy="824.26" r="3.16"/><circle class="cls-3" cx="1849.29" cy="586.26" r="3.16"/><circle class="cls-2" cx="1431.95" cy="388.68" r="4.7"/><circle class="cls-2" cx="601.56" cy="563.58" r="3.8" transform="translate(-169.92 273.22) rotate(-22.51)"/><circle class="cls-2" cx="2616.26" cy="265.16" r="3.8" transform="translate(97.79 1021.74) rotate(-22.51)"/><circle class="cls-3" cx="524.03" cy="418.58" r="3.8" transform="translate(-120.32 232.49) rotate(-22.51)"/><circle class="cls-3" cx="2816.25" cy="138.48" r="3.8" transform="translate(161.53 1088.69) rotate(-22.51)"/><circle class="cls-2" cx="1174.58" cy="606.27" r="3.8" transform="translate(-142.62 495.83) rotate(-22.51)"/><circle class="cls-3" cx="2759.75" cy="779.03" r="3.8" transform="translate(-88 1115.82) rotate(-22.51)"/><circle class="cls-2" cx="235.31" cy="629.16" r="5.53" transform="translate(-222.93 138.01) rotate(-22.51)"/><circle class="cls-2" cx="1854.09" cy="413.98" r="4.7" transform="translate(-9.11 43.13) rotate(-1.33)"/><circle class="cls-2" cx="1250.43" cy="851.58" r="4.7" transform="translate(-19.42 29.24) rotate(-1.33)"/><circle class="cls-3" cx="1466.02" cy="667.22" r="3.16" transform="translate(-15.09 34.21) rotate(-1.33)"/><circle class="cls-3" cx="843.02" cy="703.22" r="3.16" transform="translate(-16.1 19.76) rotate(-1.33)"/><circle class="cls-3" cx="241.02" cy="968.22" r="3.16" transform="translate(-22.41 5.86) rotate(-1.33)"/><circle class="cls-3" cx="2107.3" cy="540.43" r="3.16" transform="translate(-11.97 49.03) rotate(-1.33)"/><circle class="cls-3" cx="932.3" cy="425.43" r="3.16" transform="translate(-9.62 21.74) rotate(-1.33)"/><circle class="cls-2" cx="2552.4" cy="719.45" r="3.16" transform="translate(-16 59.4) rotate(-1.33)"/><circle class="cls-3" cx="2208.65" cy="267.93" r="3.16" transform="translate(-5.62 51.31) rotate(-1.33)"/><circle class="cls-3" cx="2330.65" cy="479.93" r="3.16" transform="translate(-10.51 54.19) rotate(-1.33)"/><circle class="cls-2" cx="2068.57" cy="871.86" r="4.7" transform="translate(-19.67 48.23) rotate(-1.33)"/><circle class="cls-3" cx="2548.82" cy="543.59" r="3.8" transform="translate(-2.26 1076.49) rotate(-23.84)"/><circle class="cls-2" cx="2390.36" cy="195.62" r="5.53" transform="translate(124.86 982.75) rotate(-23.84)"/><circle class="cls-2" cx="178.56" cy="135.01" r="4.7" transform="translate(-38.08 78.64) rotate(-22.51)"/><circle class="cls-3" cx="2865.41" cy="1039.3" r="4.7" transform="translate(-179.59 1176.09) rotate(-22.51)"/><path class="cls-4" d="M1366.33,1288.1l-1,0a35.26,35.26,0,0,0-46.26-39.47,66.52,66.52,0,0,0-106.25-33.83,58,58,0,0,0-111.35,14.93,56.13,56.13,0,0,0-68.87,67.92c-.76,0-1.53-.08-2.3-.08a35.2,35.2,0,1,0,19.16,64.74,66.55,66.55,0,0,0,92.2,29.62,83.15,83.15,0,0,0,100.75-5.82,72,72,0,0,0,85.57-9,52.75,52.75,0,1,0,38.39-89Z"/><path class="cls-5" d="M694.37,1132.59a34.7,34.7,0,0,0-24.11,9.68,47.1,47.1,0,0,0-21.69-5.26q-1.2,0-2.39.06a35.29,35.29,0,0,0-62.79,16.82A30.41,30.41,0,1,0,608,1206.76a47.14,47.14,0,0,0,84-5.74c.79.05,1.58.09,2.38.09a34.26,34.26,0,1,0,0-68.53Z"/><path class="cls-6" d="M1803.54,1210.89a35.29,35.29,0,0,0-62.79-16.82q-1.19-.06-2.39-.06a47.1,47.1,0,0,0-21.69,5.26,34.44,34.44,0,1,0-24.11,58.84c.8,0,1.59,0,2.38-.09a47.14,47.14,0,0,0,84,5.74,30.53,30.53,0,1,0,24.63-52.87Z"/><path class="cls-7" d="M2800.43,1224.21c-2.23,0-4.43.11-6.6.32a89.32,89.32,0,0,0-129.92-70.38,80,80,0,0,0-122.83,34.92,71.68,71.68,0,0,0-35.34,36.47c-1.11-.06-2.22-.1-3.34-.1a59.11,59.11,0,1,0,28.32,111,54.18,54.18,0,0,0,94.24,17.39,50.47,50.47,0,0,0,78.22-.86,52.93,52.93,0,0,0,84.45,5.47,67.73,67.73,0,1,0,12.79-134.25Z"/><path class="cls-8" d="M2115.18,1347.83a36.87,36.87,0,0,0-4.58.15,36.57,36.57,0,0,0-62.58.71,48.75,48.75,0,0,0-62,6.38,35.93,35.93,0,1,0-23.9,67.52,20.46,20.46,0,0,0,34.26,8.6,48.77,48.77,0,0,0,56.32-5.25,21.5,21.5,0,0,0,30.08-19,21.66,21.66,0,0,0-.15-3.36l.29,0a36.53,36.53,0,1,0,32.25-55.71Z"/><path class="cls-9" d="M2314.34,1633.67c-37.38-18.51-73.79-39.18-110.67-58.67a533.14,533.14,0,0,0-64.21-28.38c-14.62-5.44-28.32-13.57-43.61-17.07-14.11-3.23-29-2.53-43.32-4.52-29.87-4.16-59.23-11.44-89.14-15.3-32.46-4.19-65.5-.76-98-4.08a279.75,279.75,0,0,1-39.72-6.52c-11.35-2.85-21.63-8.4-32.89-11.63a237.44,237.44,0,0,0-44.89-8.52c-14.23-1.23-29.1-5.59-43.29-5.78-13.05-.17-25.67,5.84-39,6.22-15.27.43-29.52,1.12-44.57-2s-32.31-4.19-46.89-9.11c-4.42-1.49-8.35-4.21-13-4.93-6-.94-13,.43-19,.86-10.05.71-22.86,2.6-32.71,0-8.28-2.21-15.07-8-23.85-9-11.08-1.2-22.6,1.84-33.68-.08-5.31-.92-9.8-4.32-15.09-5.15-4.87-.76-8.7.78-13.28,2.28-40.63,13.25-79.89,31.66-122.09,38.33-7.74,1.22-15.27,2-22.29,5.56-8.09,4-14.6,7.41-23.77,8.89-17.06,2.74-32.88,4.36-49.51,9.2-23.1,6.72-43,19.69-64.88,29.73-9.62,4.42-20.26,7.06-29.15,12.71-11.48,7.3-23.8,13.22-35.48,20.27-19.82,12-40.35,22.59-60.15,34.65-4.92,3-22.79,10.06-22.66,16.76.13,7.35,15.76,13.25,20.7,16.38,6.73,4.27,12.53,5.58,20.56,7.3,75.64,16.17,152.34,29.87,228.84,41.34,35.93,5.39,73.57,3.48,109.75,3.22,54.77-.4,108.94-4.36,163.49-8.54,96-7.36,192.44-10.54,288.66-14.33,62.61-2.46,124.86-3.87,187.16-10.64,48.54-5.27,97-10.87,145.63-15.7,37.58-3.74,73.7-5,111.34-4.89,12.67,0,25.83.18,38.37-2C2311.78,1639.89,2322.48,1637.7,2314.34,1633.67Z"/><path class="cls-10" d="M0,1318c28,4.49,56.24,8.9,84.36,12.25,11.72,1.4,24.24,3.89,35.92,1.09,6.47-1.55,12.38-5.19,19.15-5.6,7-.42,10.36,3.93,16.65,5.52,9.13,2.32,15.18-1.34,23.92,2.9,8.11,3.93,16,4.1,24.91,5,17.43,1.83,30.48,7.19,46.79,13.57,7.09,2.77,14.33,5,21.56,7.32,8.88,2.88,18.9,9.07,27.88,10.86,9.46,1.88,18.5-5.35,27-7.88,10.05-3,19.75,3.43,29.54,5.56a214.31,214.31,0,0,0,31.31,4.52c8,.49,15.56-3.41,23.5-3.93,15.54-1,33.54,7.42,48.47,10.67,10.17,2.22,19.93,7,30.13,9.56,4.4,1.1,9.08,1.22,13.41,2.35,5.91,1.54,10.77,5.61,16.54,7.43,7.14,2.25,15.42.38,22.8.1a129.37,129.37,0,0,1,37,3.73c19.87,4.89,44.66,5.21,64.89,2,29.16-4.6,55.14-7.35,80.94,9.18,8.67,5.56,12.16,5.89,22.3,6.17,4.63.12,7.56-3.45,11.72-3.4,2.69,0,6.77,3.22,9.1,4.38,16.28,8.17,31.89,12.78,49.55,17.13,9.3,2.29,17.53,7.15,26.52,9.86,9.38,2.83,19.76.06,29.34.63,12.23.72,20.16,8.3,30.31,14.28,5.27,3.11,10.84,7.15,16.7,9.14,6.34,2.15,13.29,2.07,19.77,4.11,8.61,2.71,16.63,5.6,25.52,7.39,12.92,2.59,25,.9,37.83,2,8.66.74,15.1,7.08,22.91,10.52,10.14,4.47,21.7,4.57,31.41,9.42,15.85,7.91,31,16,47.41,22.83,31.09,13.05,63.47,20.65,95,32.49,15.5,5.81,29.94,15.43,46.58,17.85,18.46,2.68,36,8.05,54.25,11.56,31.87,6.12,64.09,10.5,96,16.76,31,6.07,58,20.51,87.14,31.76,30.34,11.73,58.12,30.68,87.51,44.58,10.39,4.91,21.2,7.72,31.87,11.89,17.46,6.83,34.53,14.7,51.61,22.43,5.48,2.48,20.46,6,22.46,11.92,1.58,4.65-2.44,14.26-3.59,18.66-6.86,26.38-15.79,52.27-24.52,78.08-18.49,54.67-38,109-57.95,163.17q-1.87,5.08-3.74,10.16H0Z"/><path class="cls-11" d="M2999.46,2000V1454.21c-16,1.61-31.94,3.32-47.95,4.39-10.25.68-20.76.4-30.63,3.76-5.46,1.86-10.24,5.07-15.78,6.86-7.2,2.32-14.66,2.5-21.93,4.34-6,1.52-7.62,4.17-12.34,7.62-5.07,3.7-11.15,5-17,6.85-5.52,1.72-11.36,3.37-16.16,6.72-6.22,4.34-8.59,8.56-16.83,9.33-12.44,1.17-25-1.85-37.49-.69-16.61,1.53-36.08,4.37-52,9.58-4.25,1.39-7.29,4.22-11.22,6-5.17,2.32-10.93,3.07-16.2,5.43-14.17,6.33-28.58,10-43,15.71-9.47,3.74-17.39,11-27,14.08-11.6,3.66-24.1,1.35-35.81,5.19-10.67,3.5-21.8,6.62-33.09,7.65-14.16,1.29-29.47,4.11-42.92-1.2-15.22-6-30.47-12.41-45.27-19.38-14.34-6.75-27.43-14.81-43.14-18-33.69-6.77-65.1-10.66-99-2.35-22.88,5.61-47.72,14.26-68.09,26.21a283,283,0,0,1-30.35,15c-12,5.22-25.09,5-37.25,9.71-10.42,4.06-19.66,8.14-30.92,9.12-14.22,1.23-28.57-1.4-42.6,1.8-7.07,1.62-14.24,3.9-21.16,6.08-5.14,1.62-9.69,5.35-15,6.12-10.05,1.47-20.62-2.55-30.83-1-14.65,2.25-28.88,7.77-43.67,9.93-18.58,2.71-39.62,2.12-57.89-2.41-23.48-5.82-43.54-23.74-67-28.75-26.36-5.63-50.83-17.71-77.65-22.66-24.79-4.58-45.44-22.06-70.73-24.76-23.49-2.51-38.73,18.74-59.94,22.18-9.76,1.58-19.69,2.78-29.26,5.37-8.54,2.32-16.25,6.78-24.42,10.15-24.09,9.93-50.85,11.87-74.76,22.07-9,3.83-17.19,9.09-26.53,12.4-6.64,2.36-14,3.32-20.4,6.27-4.47,2.06-7.84,5.58-12.37,7.45-24.79,10.23-51.45,23.85-78.52,15.88-10.43-3.07-21.58-4.4-32.28-6.59-5.66-1.16-11.3-1-16.9-2.75-8.6-2.65-16.51-6.89-25.6-7.93-25-2.84-53.7-4.5-77.16,5.81-10.76,4.73-21.56,9.37-32.68,13.2-4.48,1.55-8.85,3.59-13.3,5.08-7,2.36-14.49.67-21.53,3-9.56,3.15-17.95,9.38-27.94,11.67a74.29,74.29,0,0,1-35.65-.87c-15.74-4.36-29.67-7.41-46-6.27-6,.42-10.24.66-15.46-2.11-4.34-2.3-6.32-4.87-11.64-5.91-14.66-2.86-27.94-.85-42.22-6.91a395.74,395.74,0,0,0-45.81-16.47c-26.44-7.63-54.1-7.95-81.11-2.69-10.92,2.13-23,7.1-33.81,7.44-17.9.56-36-2-53.16,3.66-10.21,3.36-14.08,12.7-24.41,13.33-15,.93-28.12-.91-42.26,5.58a338.82,338.82,0,0,0-67.38,41.21c-10.81,8.51-23.1,14.48-34.5,22.09-10.08,6.73-19.4,14.55-29.52,21.22a492.55,492.55,0,0,1-52,29.55c-17,8.48-34.23,16.47-52.17,22.89-24.61,8.81-49.86,12-73.9,22.87-25.36,11.51-49.65,24.95-75.39,35.66-25.57,10.64-52.24,18.4-73,37.16-10,9-20.29,11.53-32.61,16.26-17,6.53-32.66,16.37-48.5,25.3-25.81,14.56-48.53,33.7-75,47.15C99.95,1975.42,76,1984.83,55.62,2000Z"/><path class="cls-12" d="M626.14,2000q60.19-25.38,120.88-49.59c51.32-20.35,102.85-35.8,156.28-49.76,57.87-15.12,117-24.55,175.46-37.2,37-8,72.71-19.86,109.21-29.37,38.93-10.14,81-.72,119.65,6.2,18.31,3.28,36.67,5.88,55,9.3,18.5,3.47,33.23-2.28,51-6.54,40.48-9.72,83.06-14.48,124.49-17.77,17.91-1.42,36.43-1.72,54.07-5.34,14.41-3,27.77-9.63,42.42-12.47,15.5-3,31.08-2.83,46.46-6.63,16.41-4,32.3-9.62,48.26-15.13,26.52-9.17,55.68-11.62,83.17-16.73,22.53-4.18,38.09-13.53,57.48-25.7,24.41-15.33,49.87-34.43,77.57-43.33,33.49-10.76,64.39-26.39,96.67-40.29,37.89-16.32,77.89-26.51,112.9-49.26,24.16-15.7,42-42.81,68.15-55.3,11.11-5.31,23.42-8.48,34.74-13.93,13.44-6.47,27.64-14.86,42.57-17.23,22.54-3.58,47.16-1,69.86-.63,23.94.38,48,1.68,72,.91,29.12-.93,58.25,10.73,86.77-.64,16.58-6.61,33-12.84,50.1-18.18,12.14-3.8,27.75-6.13,38.75-12.81,7.58-4.6,13.73-13,19.68-19.4,9.77-10.53,19.37-21.22,29.22-31.67,13.83-14.67,28.93-21.51,46.94-30.54,20.62-10.33,40.88-22.54,61.88-31.94,13.8-6.17,29.19-9.18,43.52-13.88s27.38-12.48,41.71-17.58c19.4-6.9,39.53-12.55,59.91-15.57,22.45-3.32,43.86-8,66-12.63,9.37-1.95,9.55-3.44,10.59,3.56,1.21,8.11,0,17.37,0,25.55V2000Z"/></g></g></svg>