<svg width="153" height="50" viewBox="0 0 153 50" fill="none" xmlns="http://www.w3.org/2000/svg">
<path d="M25 50C38.8071 50 50 38.8071 50 25C50 11.1929 38.8071 0 25 0C11.1929 0 0 11.1929 0 25C0 38.8071 11.1929 50 25 50Z" fill="#26514A"/>
<path fill-rule="evenodd" clip-rule="evenodd" d="M25.9834 26.8716C25.4276 26.9856 24.9125 27.2906 24.4208 27.7764C23.9286 28.2711 23.6651 28.8354 23.622 29.4597C23.595 29.8521 23.6983 30.3073 23.9249 30.7978C24.151 31.2974 24.5203 31.6723 25.0146 31.9304C25.182 31.9778 25.2563 32.0726 25.2476 32.1974C25.2444 32.242 25.1789 32.2823 25.0245 32.3075C24.2251 32.0462 23.5847 31.563 23.1111 30.8761C22.6381 30.1804 22.4216 29.4127 22.4628 28.5553C22.553 27.6386 22.8892 26.8015 23.4708 26.0531C24.062 25.2963 24.7892 24.782 25.6523 24.51L25.2539 21.3013C23.7983 22.3479 22.599 23.457 21.6456 24.6457C20.6929 25.8256 20.153 27.1414 20.0169 28.5926C19.9898 29.2449 20.0803 29.8874 20.2887 30.5111C20.4966 31.1438 20.834 31.7226 21.2995 32.2655C22.2402 33.343 23.5181 33.9599 25.1147 34.1238C25.6625 34.1257 26.2504 34.0678 26.8873 33.9504L25.9834 26.8716ZM26.6333 26.8269L27.5547 33.7814C28.9696 33.3234 29.7411 32.167 29.8679 30.3298C29.8299 29.7088 29.6892 29.1435 29.4191 28.632C29.1585 28.1122 28.7923 27.6927 28.3113 27.3728C27.8303 27.0528 27.277 26.8713 26.6333 26.8269V26.8269ZM25.4405 17.4252C25.7478 17.2672 26.1091 16.9784 26.5058 16.5667C26.9019 16.1639 27.2946 15.6803 27.6737 15.1329C28.0624 14.5773 28.3801 14.0078 28.6269 13.4244C28.8732 12.85 29.0103 12.2949 29.046 11.7776C29.0614 11.5547 29.0589 11.3305 29.0277 11.1312C29.0142 10.8076 28.933 10.5512 28.7748 10.37C28.616 10.1977 28.4077 10.0937 28.1394 10.0752C27.603 10.0382 27.0975 10.3349 26.6228 10.9652C26.2527 11.5132 25.9287 12.1719 25.6791 12.9253C25.42 13.687 25.2508 14.446 25.1794 15.2207C25.1632 16.1067 25.2564 16.839 25.4405 17.4252V17.4252ZM24.8416 17.9036C24.539 16.431 24.417 14.944 24.4757 13.4426C24.5511 12.4801 24.7116 11.5861 24.9572 10.7607C25.1938 9.9347 25.5029 9.2302 25.8857 8.62933C26.2596 8.02788 26.6766 7.5817 27.1279 7.29025C27.532 7.03138 27.8196 6.8989 27.9716 6.90937C28.0878 6.91729 28.1831 6.9688 28.267 7.05523C28.3508 7.14165 28.4578 7.28345 28.5886 7.47169C29.5484 9.05232 29.9593 10.9087 29.8128 13.0313C29.7433 14.0391 29.5415 15.0109 29.2056 15.9734C28.8793 16.9276 28.4309 17.8286 27.8616 18.6586C27.2827 19.4968 26.6225 20.2129 25.8713 20.8153L26.353 24.3791C26.7494 24.3616 27.0202 24.3445 27.1721 24.355C27.8516 24.4018 28.4496 24.5865 28.9932 24.9107C29.5367 25.235 29.9931 25.6518 30.3526 26.1695C30.7127 26.6782 30.9785 27.2521 31.15 27.8912C31.3125 28.5297 31.3838 29.1888 31.3371 29.8666C31.2645 30.919 30.9209 31.863 30.3069 32.6899C29.6929 33.5167 28.8178 34.0926 27.672 34.4257C27.7133 34.8677 27.7948 35.5095 27.9265 36.3341C28.0487 37.1669 28.1379 37.8272 28.1941 38.3149C28.2502 38.8027 28.254 39.2689 28.2226 39.7238C28.174 40.4283 27.9611 41.0409 27.5832 41.5704C27.1964 42.0993 26.702 42.4953 26.091 42.7578C25.4889 43.021 24.8348 43.1282 24.1374 43.0801C23.154 43.0122 22.3148 42.6765 21.6193 42.0819C20.9243 41.4784 20.582 40.711 20.6115 39.7632C20.6673 39.3459 20.7927 38.9602 20.9973 38.598C21.202 38.2358 21.4643 37.9492 21.7932 37.7389C22.1138 37.519 22.4889 37.4195 22.911 37.4217C23.2596 37.4458 23.5836 37.5667 23.8836 37.7756C24.1741 37.9928 24.4065 38.2687 24.5715 38.6116C24.7276 38.9539 24.8007 39.3264 24.7736 39.7188C24.7373 40.245 24.5277 40.6786 24.1449 41.0196C23.7621 41.3605 23.2932 41.5164 22.7478 41.4787L22.5422 41.4647C22.8539 42.0238 23.407 42.3398 24.2027 42.3947C24.605 42.4224 25.0224 42.3616 25.4447 42.2295C25.8766 42.089 26.2407 41.8901 26.5554 41.6251C26.8701 41.36 27.0877 41.0704 27.1903 40.7549C27.3675 40.3997 27.4741 39.8963 27.5178 39.2631C27.5474 38.835 27.5322 38.4038 27.4813 37.9702C27.4297 37.5455 27.3433 36.975 27.2215 36.2676C27.099 35.5691 27.0108 35.0254 26.9645 34.6548C26.4188 34.7516 25.8596 34.7847 25.2785 34.7446C24.304 34.6773 23.3967 34.4176 22.5572 33.9564C21.7177 33.4953 20.996 32.8899 20.3836 32.1308C19.7802 31.3723 19.326 30.5344 19.0222 29.5994C18.7268 28.674 18.6043 27.7157 18.663 26.734C18.7615 25.8268 18.9917 24.9645 19.3701 24.1662C19.7492 23.359 20.2146 22.6026 20.7747 21.9064C21.3347 21.2103 21.9083 20.5778 22.4949 20.0179C23.0898 19.4675 23.8663 18.7594 24.8416 17.9037V17.9036Z" fill="white"/>
<path d="M32.9322 48.6752C33.3107 48.5593 33.6863 48.4345 34.0588 48.3009C34.8357 47.9989 35.597 47.6582 36.3399 47.2802C37.0827 46.9021 37.8061 46.4871 38.5075 46.0367C39.2089 45.5864 39.8873 45.1012 40.5402 44.5831C41.1932 44.065 41.8198 43.5145 42.4178 42.9338C43.0157 42.3531 43.5842 41.743 44.1212 41.1055C44.6581 40.468 45.1627 39.804 45.6333 39.116C46.1039 38.4281 46.5398 37.7171 46.9395 36.9856C47.3391 36.2542 47.7019 35.5032 48.0266 34.7355C48.3511 33.9678 48.6371 33.1843 48.8834 32.3881C49.1297 31.5918 49.3361 30.7836 49.5017 29.9667C49.6673 29.1498 49.7919 28.3251 49.8752 27.4958C49.9584 26.6665 50 25.8335 50 25C50 24.41 49.9791 23.8201 49.9373 23.2316C49.8784 22.4002 49.7779 21.5723 49.6363 20.7509C49.5369 20.2316 49.4211 19.7156 49.2889 19.2036L28.2828 7.07562C28.3647 7.16295 28.4643 7.29265 28.5887 7.47169C28.8286 7.86685 29.0343 8.27909 29.2055 8.70857C29.3767 9.13805 29.5134 9.58477 29.6156 10.0483C29.7178 10.5118 29.7855 10.9921 29.8184 11.4893C29.8513 11.9866 29.8495 12.5006 29.8129 13.0312C29.7782 13.5351 29.7105 14.03 29.6093 14.5193C29.5082 15.0085 29.3738 15.4922 29.2058 15.9735C29.0426 16.4506 28.8488 16.9142 28.6247 17.3625C28.4007 17.8107 28.1462 18.2437 27.8615 18.6586C27.5721 19.0777 27.2624 19.4662 26.9311 19.8253C26.5998 20.1844 26.2471 20.5142 25.8715 20.8154L26.3532 24.3791C26.7496 24.3616 27.0203 24.3446 27.1723 24.3551C27.512 24.3785 27.8312 24.4363 28.1336 24.5289C28.436 24.6214 28.7216 24.7485 28.9934 24.9106C29.2651 25.0728 29.515 25.2582 29.7419 25.4676C29.9689 25.6771 30.1727 25.9107 30.3525 26.1696C30.5326 26.4239 30.6893 26.6945 30.8222 26.9815C30.9551 27.2684 31.0644 27.5717 31.1501 27.8913C31.2314 28.2105 31.2899 28.5348 31.3222 28.8641C31.3545 29.1934 31.3605 29.5276 31.3371 29.8665C31.3189 30.1296 31.284 30.386 31.232 30.6354C31.18 30.8848 31.1111 31.1274 31.0252 31.3628C30.9393 31.5983 30.8365 31.8266 30.7168 32.0478C30.5971 32.2691 30.4605 32.4832 30.307 32.6899C30.1535 32.8966 29.9838 33.0875 29.7975 33.263C29.6112 33.4384 29.4083 33.5985 29.189 33.7429C28.9696 33.8874 28.7335 34.0164 28.4807 34.1301C28.2279 34.2439 27.9584 34.3424 27.672 34.4257C27.7133 34.8676 27.7948 35.5096 27.9266 36.3341C28.0487 37.167 28.1379 37.8273 28.194 38.315C28.2502 38.8028 28.2541 39.2689 28.2227 39.7237C28.1984 40.076 28.1331 40.4052 28.0265 40.7126C27.92 41.02 27.7721 41.3056 27.5832 41.5703C27.3898 41.8348 27.1694 42.066 26.9211 42.2639C26.6728 42.4619 26.3966 42.6267 26.0911 42.758C25.7901 42.8895 25.476 42.9821 25.1501 43.0357C24.8241 43.0894 24.4861 43.1042 24.1374 43.0801C23.8916 43.0632 23.6547 43.0293 23.4269 42.979C23.1991 42.9287 22.9804 42.8619 22.7705 42.7786C22.6413 42.7272 22.5218 42.6579 22.3994 42.5941L32.9322 48.6752Z" fill="#1F443E"/>
<path d="M69.6895 31C69.336 31.0707 69.0886 30.901 68.9472 30.491C68.8058 30.0668 68.728 29.4447 68.7139 28.6246C68.6856 27.4227 68.6432 26.4188 68.5866 25.6128C68.5442 24.7927 68.4593 24.0575 68.3321 23.4071C67.0171 24.0292 65.7163 24.6019 64.4296 25.125C63.157 25.634 62.5207 25.8815 62.5207 25.8673L62.5632 30.3849C62.5632 30.597 62.4359 30.7313 62.1814 30.7879C61.842 30.8586 61.6158 30.6677 61.5027 30.2153C61.4037 29.7487 61.333 29.0205 61.2906 28.0307C61.2623 27.1399 61.2199 26.5107 61.1633 26.1431C60.7674 26.341 60.4281 26.4329 60.1453 26.4188C60.0887 26.3057 60.0605 26.0724 60.0605 25.7189C60.1736 25.6765 60.3079 25.627 60.4634 25.5704C60.6331 25.5139 60.7533 25.4502 60.824 25.3795C60.9088 25.2947 60.9513 25.1745 60.9513 25.019C60.9513 24.312 60.8806 23.2233 60.7392 21.7527C60.5836 20.4236 60.5059 19.3278 60.5059 18.4653L60.5271 17.4897C60.5695 17.3907 60.619 17.3271 60.6755 17.2988C60.7462 17.2705 60.8381 17.2564 60.9513 17.2564C61.1916 17.2564 61.3118 17.3341 61.3118 17.4897L62.1814 24.9553C62.5773 24.8564 63.2348 24.6019 64.1539 24.1918C65.0729 23.7818 66.4869 23.1172 68.3957 22.1981L68.4806 17.4897C68.4806 16.9382 68.6856 16.6625 69.0956 16.6625C69.2653 16.6625 69.3784 16.7261 69.435 16.8534C69.5057 16.9806 69.5269 17.1927 69.4986 17.4897L69.4774 21.1589C69.4774 22.4032 69.5481 24.0221 69.6895 26.0158C69.7319 26.4117 69.7673 26.7935 69.7955 27.1611C69.838 27.5146 69.8733 27.854 69.9016 28.1792C69.9864 29.0558 70.043 29.6143 70.0713 29.8547C70.1137 30.0809 70.1773 30.286 70.2621 30.4698C70.1914 30.7526 70.0006 30.9293 69.6895 31ZM77.6229 31C76.1524 31 74.8728 30.7455 73.784 30.2365C72.7094 29.7133 72.1721 28.8013 72.1721 27.5005C72.1721 27.0339 72.3135 26.5814 72.5963 26.1431C72.8791 25.7047 73.2962 25.3513 73.8477 25.0826C74.3991 24.7998 75.0707 24.6584 75.8626 24.6584C76.4706 24.6584 76.9866 24.6867 77.4108 24.7433C77.835 24.7998 78.3228 24.9553 78.8743 25.2099C79.4257 25.4644 79.9984 25.8673 80.5922 26.4188C80.366 25.4432 80.0266 24.5877 79.5742 23.8525C79.1217 23.1172 78.6127 22.5516 78.0471 22.1557C77.4957 21.7457 76.9513 21.5407 76.414 21.5407C76.1595 21.5407 75.9191 21.5901 75.6929 21.6891C75.4808 21.774 75.2192 21.9012 74.9081 22.0709C74.5546 22.2971 74.2931 22.4102 74.1234 22.4102C74.0527 22.4102 73.9891 22.389 73.9325 22.3466C73.8901 22.29 73.8689 22.2264 73.8689 22.1557C73.8689 21.5901 74.1163 21.1518 74.6112 20.8407C75.1202 20.5297 75.7353 20.3883 76.4564 20.4166C77.4462 20.4731 78.3511 20.8973 79.1712 21.6891C79.9913 22.4668 80.6346 23.4353 81.1013 24.5948C81.582 25.7542 81.8224 26.8925 81.8224 28.0095C81.8224 28.1933 81.8082 28.4549 81.78 28.7942L81.1013 28.7518C80.564 27.6631 79.8711 26.8925 79.0227 26.44C78.1885 25.9734 77.3472 25.7401 76.4988 25.7401C75.4101 25.7401 74.6324 25.9027 74.1658 26.2279C73.6992 26.5531 73.4659 27.0268 73.4659 27.6489C73.4659 28.2993 73.7911 28.8225 74.4415 29.2184C75.092 29.6143 75.9262 29.8123 76.9442 29.8123C77.5098 29.8123 77.9623 29.784 78.3016 29.7274C78.641 29.6567 78.9945 29.5648 79.3621 29.4517C79.659 29.3527 79.9206 29.282 80.1468 29.2396C80.3731 29.1972 80.6629 29.176 81.0164 29.176C81.4123 29.176 81.6598 29.2043 81.7587 29.2608C81.8719 29.3174 81.9284 29.4447 81.9284 29.6426C81.9284 29.784 81.6386 29.9607 81.0588 30.1728C80.4791 30.3849 79.8287 30.5758 79.1076 30.7455C78.3865 30.9152 77.8916 31 77.6229 31ZM85.4924 31C84.9127 29.8688 84.4532 28.5397 84.1138 27.0127C83.7886 25.4856 83.626 24.1635 83.626 23.0465C83.626 22.6082 83.725 22.3254 83.9229 22.1981C84.036 22.1274 84.1209 22.0921 84.1774 22.0921C84.2764 22.0921 84.3471 22.1699 84.3895 22.3254C84.4461 22.4809 84.5026 22.7637 84.5592 23.1738L84.6652 23.9373C84.8208 23.1738 85.1177 22.5728 85.556 22.1345C86.0085 21.682 86.5599 21.4558 87.2104 21.4558C87.9315 21.4558 88.4688 21.5972 88.8223 21.88C89.1758 22.1487 89.3525 22.6011 89.3525 23.2374C88.6455 22.898 88.0022 22.7284 87.4225 22.7284C86.871 22.7284 86.3973 22.8768 86.0014 23.1738C85.6055 23.4707 85.3298 23.909 85.1743 24.4887C85.047 24.8847 84.9834 25.2593 84.9834 25.6128C84.9834 25.9946 85.0329 26.3552 85.1318 26.6945C85.245 27.0197 85.4146 27.4227 85.6409 27.9034C85.853 28.3983 86.0156 28.8225 86.1287 29.176C86.2559 29.5295 86.3266 29.9113 86.3408 30.3213C86.3408 30.5617 86.2559 30.7384 86.0863 30.8515C85.9166 30.9505 85.7186 31 85.4924 31ZM103.957 31.0212C103.745 31.0212 103.617 30.9647 103.575 30.8515C103.532 30.7243 103.511 30.5334 103.511 30.2789C103.525 30.1799 103.532 30.0668 103.532 29.9395C103.532 29.7981 103.539 29.6921 103.554 29.6214C103.638 28.9427 103.681 28.2993 103.681 27.6913C103.681 26.3481 103.455 25.3018 103.002 24.5524C102.55 23.7888 101.836 23.4071 100.86 23.4071C100.323 23.4071 99.7854 23.5414 99.2481 23.81C98.725 24.0787 98.2937 24.411 97.9544 24.8069C97.6292 25.2028 97.4666 25.5633 97.4666 25.8886C97.5372 26.2986 97.6645 26.8006 97.8483 27.3944C97.8625 27.4651 97.919 27.6843 98.018 28.0519C98.1311 28.4195 98.1877 28.7518 98.1877 29.0487L98.2089 29.4517C98.2089 29.678 98.0958 29.7911 97.8695 29.7911C97.5867 29.7911 97.3534 29.6073 97.1696 29.2396C96.9999 28.872 96.8091 28.2993 96.597 27.5217C96.3849 26.7581 96.1799 26.1289 95.9819 25.634C95.7839 25.1392 95.5153 24.715 95.1759 24.3615C94.8366 24.008 94.4053 23.8313 93.8822 23.8313C93.1611 23.8313 92.5955 24.0787 92.1854 24.5736C91.7895 25.0685 91.5916 25.6765 91.5916 26.3976C91.5916 26.8783 91.634 27.5146 91.7188 28.3064C91.7895 28.9003 91.8249 29.4093 91.8249 29.8335C91.8249 30.088 91.7966 30.2789 91.74 30.4061C91.6835 30.5334 91.5492 30.597 91.3371 30.597C91.0543 30.597 90.8563 30.5051 90.7432 30.3213C90.6301 30.1233 90.5735 29.8264 90.5735 29.4305C90.5735 28.6528 90.5311 27.7126 90.4463 26.6097C90.4321 26.4683 90.4039 26.1077 90.3614 25.528C90.319 24.9341 90.3119 24.3403 90.3402 23.7464L90.3614 23.0465C90.4463 22.9617 90.5452 22.9193 90.6584 22.9193C90.8139 22.9193 90.9412 23.0182 91.0401 23.2162C91.1532 23.4 91.2098 23.6828 91.2098 24.0646C91.4219 23.6969 91.733 23.3647 92.143 23.0677C92.5531 22.7708 92.9843 22.6223 93.4368 22.6223C94.2145 22.6223 94.8578 22.7849 95.3668 23.1101C95.89 23.4212 96.3637 23.9302 96.7879 24.6372C97.1838 23.9161 97.7776 23.301 98.5694 22.792C99.3754 22.283 100.203 22.0285 101.051 22.0285C101.928 22.0285 102.656 22.3607 103.235 23.0253C103.829 23.6899 104.261 24.4887 104.529 25.422C104.812 26.3552 104.953 27.2177 104.953 28.0095C104.953 28.7165 104.89 29.3952 104.763 30.0456C104.649 30.696 104.381 31.0212 103.957 31.0212ZM111.048 31.0212C110.214 31.0212 109.458 30.8374 108.779 30.4698C108.114 30.088 107.591 29.5648 107.209 28.9003C106.842 28.2216 106.658 27.451 106.658 26.5885C106.658 25.1745 107.174 24.1211 108.206 23.4283C109.253 22.7354 110.532 22.389 112.045 22.389C112.738 22.389 113.381 22.5587 113.975 22.898C114.583 23.2374 115.071 23.7252 115.439 24.3615C115.806 24.9978 115.99 25.733 115.99 26.5673C115.99 27.4722 115.757 28.264 115.29 28.9427C114.824 29.6073 114.208 30.1233 113.445 30.491C112.696 30.8445 111.897 31.0212 111.048 31.0212ZM110.815 29.8123C112.13 29.8123 113.127 29.5153 113.806 28.9215C114.484 28.3276 114.824 27.458 114.824 26.3127C114.824 25.5351 114.555 24.8634 114.018 24.2979C113.494 23.7323 112.759 23.4495 111.812 23.4495C111.176 23.4495 110.532 23.5697 109.882 23.81C109.231 24.0504 108.694 24.411 108.27 24.8917C107.846 25.3725 107.634 25.9522 107.634 26.6309C107.634 27.1965 107.775 27.7267 108.058 28.2216C108.341 28.7023 108.722 29.0912 109.203 29.3881C109.698 29.6709 110.235 29.8123 110.815 29.8123ZM119.692 31.0848C119.494 31.1414 119.381 31.1697 119.352 31.1697C119.239 31.1697 119.119 31.1131 118.992 31C118.525 30.3072 118.186 29.0982 117.974 27.3732C117.776 25.6482 117.677 24.1635 117.677 22.9193C117.677 22.7213 117.818 22.6223 118.101 22.6223C118.525 22.6223 118.737 22.8556 118.737 23.3222C118.737 23.4495 118.73 23.5555 118.716 23.6404C118.843 23.3434 119.084 23.0394 119.437 22.7284C119.791 22.4173 120.201 22.1557 120.667 21.9436C121.134 21.7315 121.608 21.6255 122.088 21.6255C123.601 21.6255 124.704 22.2971 125.397 23.6404C126.09 24.9695 126.436 26.6238 126.436 28.6033C126.436 29.282 126.366 29.8264 126.224 30.2365C126.083 30.6324 125.892 30.8303 125.652 30.8303C125.397 30.8303 125.27 30.7526 125.27 30.597C125.369 29.8476 125.418 29.1124 125.418 28.3913C125.418 26.5673 125.1 25.1887 124.464 24.2554C123.828 23.3081 122.986 22.8344 121.94 22.8344C121.431 22.8344 120.936 22.9617 120.455 23.2162C119.989 23.4707 119.607 23.8242 119.31 24.2767C119.027 24.7291 118.886 25.2452 118.886 25.8249C118.886 26.4753 118.921 27.0409 118.992 27.5217C119.063 28.0024 119.176 28.5821 119.331 29.2608C119.501 29.9254 119.621 30.5334 119.692 31.0848ZM129.558 31.0212C129.232 31.0212 128.971 30.5475 128.773 29.6002C128.575 28.6387 128.448 27.8115 128.391 27.1187C128.334 26.4259 128.257 25.33 128.158 23.8313C128.144 23.5909 128.137 23.2798 128.137 22.898C128.137 22.4173 128.172 22.085 128.243 21.9012C128.327 21.7174 128.462 21.6255 128.646 21.6255C128.801 21.6255 128.921 21.6608 129.006 21.7315C129.105 21.7881 129.19 21.8871 129.261 22.0285L129.239 22.8768C129.239 23.7818 129.282 24.6372 129.367 25.4432C129.466 26.2491 129.614 27.3308 129.812 28.6882C129.925 29.282 130.003 29.7699 130.045 30.1516C130.074 30.3496 130.038 30.5475 129.939 30.7455C129.84 30.9293 129.713 31.0212 129.558 31.0212ZM129.027 19.3561C128.716 19.3561 128.483 19.2359 128.327 18.9955C128.186 18.7552 128.115 18.4582 128.115 18.1047C128.115 17.9492 128.122 17.8361 128.137 17.7654C128.122 17.5392 128.25 17.426 128.518 17.426C128.716 17.426 128.914 17.4755 129.112 17.5745C129.324 17.6593 129.388 17.723 129.303 17.7654C129.444 18.133 129.515 18.4229 129.515 18.635C129.515 18.8188 129.473 18.9673 129.388 19.0804C129.303 19.1793 129.183 19.2713 129.027 19.3561ZM137.165 16.0686C137.801 16.0686 138.409 16.2313 138.989 16.5565C139.569 16.8675 140.035 17.2705 140.389 17.7654C140.757 18.2603 140.94 18.7552 140.94 19.25H140.474C140.262 19.25 140.071 19.1864 139.901 19.0592C139.746 18.9319 139.541 18.7269 139.286 18.4441C138.918 18.0482 138.586 17.7513 138.289 17.5533C138.006 17.3553 137.639 17.2564 137.186 17.2564C136.409 17.2564 135.758 17.6169 135.235 18.338C134.712 19.045 134.401 19.8793 134.302 20.8407C134.259 21.2791 134.238 21.7174 134.238 22.1557C134.238 22.8768 134.288 23.5414 134.387 24.1494C134.57 24.1777 135.002 24.213 135.68 24.2554C136.359 24.2979 136.918 24.3332 137.356 24.3615C137.511 24.3615 137.815 24.3756 138.268 24.4039C138.409 24.4039 138.508 24.4393 138.565 24.51C138.636 24.5665 138.671 24.6726 138.671 24.8281C138.671 25.2099 138.24 25.4007 137.377 25.4007C136.628 25.4007 135.687 25.2664 134.556 24.9978C134.712 25.634 134.91 26.2208 135.15 26.7581C135.391 27.2813 135.702 27.9105 136.083 28.6458C136.352 29.1689 136.55 29.579 136.677 29.8759C136.805 30.1587 136.868 30.3991 136.868 30.597C136.868 30.7526 136.819 30.8657 136.72 30.9364C136.621 30.9929 136.479 31.0212 136.295 31.0212C135.914 31.0212 135.553 30.6182 135.214 29.8123C134.889 28.9922 134.514 27.861 134.09 26.4188L133.708 25.1674C133.397 25.1957 133.008 25.2806 132.541 25.422C132.499 25.4361 132.351 25.4785 132.096 25.5492C131.856 25.6058 131.637 25.634 131.439 25.634C131.212 25.634 131.099 25.4997 131.099 25.2311C131.099 24.8776 131.283 24.6443 131.651 24.5312C132.018 24.4039 132.365 24.3332 132.69 24.3191C133.015 24.2908 133.22 24.2696 133.305 24.2554C133.277 23.7181 133.263 23.2374 133.263 22.8132C133.263 20.9892 133.538 19.4127 134.09 18.0835C134.655 16.7403 135.68 16.0686 137.165 16.0686ZM147.597 41.032C146.636 41.032 145.773 40.827 145.01 40.4169C144.26 40.0069 143.659 39.5332 143.207 38.9959C142.754 38.4586 142.5 38.0203 142.443 37.6809C142.387 37.3699 142.458 37.1295 142.655 36.9598C142.868 36.7901 143.129 36.7194 143.44 36.7477C143.879 37.794 144.402 38.6 145.01 39.1656C145.618 39.7312 146.487 40.0281 147.618 40.0564C148.41 40.0705 149.039 39.5615 149.506 38.5293C149.987 37.5113 150.326 36.2599 150.524 34.7753C150.722 33.3047 150.821 31.8554 150.821 30.4273C150.821 29.6921 150.8 29.0912 150.757 28.6246C149.683 29.9395 148.311 30.597 146.643 30.597C145.201 30.597 144.091 29.9113 143.313 28.5397C142.549 27.1682 142.055 25.6199 141.828 23.8949C141.8 23.7252 141.786 23.4848 141.786 23.1738C141.786 22.283 142.076 21.8376 142.655 21.8376C142.712 21.8376 142.79 22.1911 142.889 22.898C143.044 24.0151 143.235 25.019 143.461 25.9098C143.688 26.8006 144.062 27.6136 144.586 28.3488C145.123 29.07 145.83 29.4305 146.706 29.4305C147.399 29.4305 148.106 29.2043 148.827 28.7518C149.563 28.2852 150.093 27.7691 150.418 27.2035C150.418 26.1289 150.277 25.1674 149.994 24.3191C149.725 23.4566 149.584 22.997 149.57 22.9405C149.541 22.6294 149.527 22.4314 149.527 22.3466C149.527 22.0638 149.57 21.8588 149.655 21.7315C149.754 21.6043 149.895 21.5407 150.079 21.5407C150.277 21.5407 150.503 21.9436 150.757 22.7496C151.012 23.5555 151.238 24.6089 151.436 25.9098C151.634 27.2106 151.768 28.568 151.839 29.982C151.867 30.7172 151.882 31.2616 151.882 31.6151C151.882 34.3299 151.542 36.578 150.863 38.3596C150.199 40.1412 149.11 41.032 147.597 41.032Z" fill="white"/>
</svg>
