<svg xmlns="http://www.w3.org/2000/svg" xmlns:xlink="http://www.w3.org/1999/xlink" viewBox="0 0 3000 2000"><defs><style>.cls-1{fill:url(#linear-gradient);}.cls-2,.cls-3{fill:#fff;}.cls-3{opacity:0.5;}.cls-4,.cls-5,.cls-6,.cls-7{fill-rule:evenodd;opacity:0.1;}.cls-4{fill:url(#linear-gradient-2);}.cls-5{fill:url(#linear-gradient-3);}.cls-6{fill:url(#linear-gradient-4);}.cls-7{fill:url(#linear-gradient-5);}.cls-8{fill:#26514a;}.cls-9{fill:#143f3a;}.cls-10{fill:#0e231f;}.cls-11{fill:#0d1e1c;}</style><linearGradient id="linear-gradient" x1="1500" y1="2000" x2="1500" gradientUnits="userSpaceOnUse"><stop offset="0" stop-color="#7c8f77"/><stop offset="0.49" stop-color="#3a5f59"/><stop offset="1" stop-color="#0a1d21"/></linearGradient><linearGradient id="linear-gradient-2" x1="2823.72" y1="1188.46" x2="2823.72" y2="1384.46" gradientUnits="userSpaceOnUse"><stop offset="0" stop-color="#fff"/><stop offset="0.22" stop-color="#fff" stop-opacity="0.76"/><stop offset="0.6" stop-color="#fff" stop-opacity="0.36"/><stop offset="0.87" stop-color="#fff" stop-opacity="0.1"/><stop offset="1" stop-color="#fff" stop-opacity="0"/></linearGradient><linearGradient id="linear-gradient-3" x1="710.72" y1="1175.51" x2="710.72" y2="1307.33" xlink:href="#linear-gradient-2"/><linearGradient id="linear-gradient-4" x1="1636.7" y1="1255.5" x2="1636.7" y2="1384" xlink:href="#linear-gradient-2"/><linearGradient id="linear-gradient-5" x1="2410.5" y1="1340" x2="2410.5" y2="1497.93" xlink:href="#linear-gradient-2"/></defs><title>Night Sky 5</title><g id="Layer_2" data-name="Layer 2"><g id="Layer_1-2" data-name="Layer 1"><rect class="cls-1" width="3000" height="2000"/><circle class="cls-2" cx="1680.59" cy="322.31" r="4.7"/><circle class="cls-2" cx="2109.4" cy="389.96" r="3.16"/><circle class="cls-3" cx="2551.6" cy="334.15" r="3.16"/><circle class="cls-3" cx="382.85" cy="54.3" r="3.16"/><circle class="cls-3" cx="498.15" cy="940.11" r="3.16"/><circle class="cls-3" cx="744.15" cy="873.11" r="3.16"/><circle class="cls-3" cx="911.15" cy="726.11" r="3.16"/><circle class="cls-3" cx="99.15" cy="94.11" r="3.16"/><circle class="cls-2" cx="145.81" cy="388.53" r="4.7"/><circle class="cls-2" cx="498.42" cy="506.44" r="3.8" transform="translate(-155.91 229.38) rotate(-22.51)"/><circle class="cls-3" cx="2783.12" cy="1044.01" r="3.8" transform="translate(-187.66 1144.99) rotate(-22.51)"/><circle class="cls-3" cx="2859.11" cy="142.34" r="3.8" transform="translate(163.3 1105.36) rotate(-22.51)"/><circle class="cls-3" cx="2722.61" cy="489.89" r="3.8" transform="translate(19.86 1079.57) rotate(-22.51)"/><circle class="cls-2" cx="2670.71" cy="660.07" r="5.53" transform="translate(-49.24 1072.68) rotate(-22.51)"/><circle class="cls-2" cx="858.17" cy="506.02" r="5.53" transform="translate(-128.34 367.07) rotate(-22.51)"/><circle class="cls-2" cx="936.95" cy="414.84" r="4.7" transform="translate(-9.37 21.85) rotate(-1.33)"/><circle class="cls-3" cx="406.88" cy="657.08" r="3.16" transform="translate(-15.13 9.62) rotate(-1.33)"/><circle class="cls-3" cx="680.88" cy="471.08" r="3.16" transform="translate(-10.74 15.92) rotate(-1.33)"/><circle class="cls-3" cx="779.88" cy="94.08" r="3.16" transform="translate(-1.97 18.12) rotate(-1.33)"/><circle class="cls-3" cx="1471.16" cy="208.28" r="3.16" transform="translate(-4.44 34.18) rotate(-1.33)"/><circle class="cls-3" cx="991.51" cy="122.78" r="3.16" transform="translate(-2.58 23.03) rotate(-1.33)"/><circle class="cls-2" cx="2219.61" cy="525.84" r="4.7" transform="translate(-11.6 51.64) rotate(-1.33)"/><circle class="cls-2" cx="201.22" cy="799.48" r="5.53" transform="translate(-305.94 149.52) rotate(-23.84)"/><circle class="cls-3" cx="1039.42" cy="931.86" r="4.7" transform="translate(-277.55 468.89) rotate(-22.51)"/><circle class="cls-3" cx="2828.27" cy="750.16" r="4.7" transform="translate(-71.73 1139.87) rotate(-22.51)"/><circle class="cls-2" cx="1992.4" cy="615.96" r="3.16"/><circle class="cls-2" cx="2224.4" cy="681.96" r="3.16"/><circle class="cls-3" cx="1761.4" cy="902.96" r="3.16"/><circle class="cls-2" cx="2449.43" cy="638.75" r="3.16"/><circle class="cls-2" cx="1270.85" cy="119.3" r="3.16"/><circle class="cls-3" cx="1595.85" cy="755.3" r="3.16"/><circle class="cls-3" cx="1601.85" cy="582.3" r="3.16"/><circle class="cls-3" cx="2037.89" cy="318.44" r="3.8" transform="translate(33.34 804.42) rotate(-22.51)"/><circle class="cls-3" cx="2158.89" cy="971.44" r="3.8" transform="translate(-207.43 900.48) rotate(-22.51)"/><circle class="cls-3" cx="2468.6" cy="947.34" r="3.8" transform="translate(-174.61 1017.18) rotate(-22.51)"/><circle class="cls-2" cx="1992.6" cy="826.34" r="3.8" transform="translate(-164.55 825.75) rotate(-22.51)"/><circle class="cls-2" cx="1348.17" cy="676.02" r="5.53" transform="translate(-156.09 567.6) rotate(-22.51)"/><circle class="cls-2" cx="2460.43" cy="427.16" r="3.16" transform="translate(-9.25 57.19) rotate(-1.33)"/><circle class="cls-2" cx="210.06" cy="641.33" r="3.16"/><circle class="cls-2" cx="458.85" cy="301.3" r="3.16"/><circle class="cls-2" cx="247.26" cy="290.3" r="3.16" transform="translate(-6.67 5.81) rotate(-1.33)"/><circle class="cls-3" cx="1922.68" cy="76.45" r="3.8" transform="translate(133.11 783.55) rotate(-23.84)"/><circle class="cls-3" cx="2215.68" cy="322.45" r="3.8" transform="translate(58.69 922.95) rotate(-23.84)"/><circle class="cls-2" cx="1030.65" cy="722.83" r="5.53" transform="translate(-198.2 449.62) rotate(-22.51)"/><circle class="cls-2" cx="1876.56" cy="449.31" r="5.53" transform="translate(-29.05 752.6) rotate(-22.51)"/><circle class="cls-2" cx="2262.42" cy="187.86" r="4.7" transform="translate(100.42 880.39) rotate(-22.51)"/><path class="cls-4" d="M2942.43,1259.18c-1.83,0-3.63.09-5.42.27a73.24,73.24,0,0,0-106.57-57.73,65.66,65.66,0,0,0-100.78,28.63,58.8,58.8,0,0,0-29,29.92c-.91-.05-1.82-.08-2.74-.08a48.5,48.5,0,1,0,23.23,91.07,44.45,44.45,0,0,0,77.31,14.27,41.41,41.41,0,0,0,64.17-.7,43.42,43.42,0,0,0,69.28,4.49,55.57,55.57,0,1,0,10.49-110.13Z"/><path class="cls-5" d="M806.91,1258.37c-.7,0-1.4,0-2.1.06a45,45,0,0,0-22.17-22.88,50.22,50.22,0,0,0-77.07-21.9,56,56,0,0,0-81.5,44.15c-1.36-.13-2.74-.2-4.14-.2a42.49,42.49,0,1,0,8,84.22,33.21,33.21,0,0,0,53-3.43,31.66,31.66,0,0,0,49.08.54A34,34,0,0,0,789.15,1328a37.09,37.09,0,1,0,17.77-69.64Z"/><path class="cls-6" d="M1703.25,1291.58a31.58,31.58,0,0,0-41.32-26.87,43,43,0,0,0-66.1,16.79,42.47,42.47,0,1,0-8.95,84c1.3,0,2.59-.07,3.86-.18a39.74,39.74,0,0,0,63.07,5.75,27.24,27.24,0,0,0,36.06-16.07,32.4,32.4,0,1,0,13.39-63.41Z"/><path class="cls-7" d="M2534.35,1432.62a31.47,31.47,0,0,0-33.36-44.69,42.5,42.5,0,0,0-80.72-17.26,25.74,25.74,0,0,0-30.64,3.64,52.73,52.73,0,0,0-99.59,34.61,18.77,18.77,0,0,0,5.83,33.08,35.14,35.14,0,0,0,56.2,38.45,52.13,52.13,0,0,0,77.15.85,49.64,49.64,0,0,0,80-19.87,19.42,19.42,0,0,0,25.08-28.79Z"/><path class="cls-8" d="M2004.8,1453.6c-8.19-1.49-14.65-6.92-22.43-9.51-10.71-3.57-22.74-4.89-33.69-8.09-26.78-7.84-45.19-.08-71.48,6.57-23.85,6-47.54,7.42-71.48,11.75s-48.81,15.07-72,22.8c-24.91,8.29-49.81,18.72-74,29.13-10.1,4.35-14.62,9.8-23.29,15.49-7.42,4.88-14.13,4.36-23.62,5.56-10.28,1.3-24.49,2.95-34.08,7-10.37,4.42-16.9,13-26.49,18.92-12.13,7.48-24.55,14.74-36.55,22.39-5.81,3.7-13.2,8.25-18.22,12.88-6.68,6.17-5.36,8.84-9.5,16-14.19,24.44-49,41.79-70.84,60.21s-44.57,31-68.92,46.3H2502c-20.32-35.37-41.25-68.94-71.54-96.69-12.64-11.58-28.3-16.6-42.79-25.38-12.74-7.72-23.82-17.79-35.91-26.46-21.89-15.7-41.44-18.3-65.18-28.71-20.35-8.92-39.52-19.08-60.62-27.07-11.24-4.26-23.57-12.09-35.26-14.4-10.57-2.09-22.52-.7-33.4-2.49-24.25-4-49.11-7.1-72.86-13.23C2057.35,1469.58,2031.37,1461.17,2004.8,1453.6Z"/><path class="cls-9" d="M986.89,1318.29c17.12-5.71,26.45-17.54,44.4-22.87a409.68,409.68,0,0,0,46.59-17.16c19.19-8.33,35.8-11.91,56.14-4.1,20.07,7.71,39.91,15.27,59.91,22.5,22.34,8.07,40.35,15.92,64.34,19.26,23.05,3.21,38.11,6.19,59.9,16.12,40.83,18.61,82.14,34.08,120.45,57.68,20.5,12.63,43.29,22,64.24,34,20.19,11.62,32.26,21.5,46.66,39.19,10.47,12.86,15.53,10.81,33.17,13.12,18.31,2.4,43.95,9,60.09,18,15.37,8.54,18.43,25.34,32.37,35.6,19.33,14.23,36.28,31.25,55.15,46.12,12.91,10.17,37.57,30.4,44.77,45.06,4.29,8.73,1.56,19.39,4.8,28.35,4,11.18,12.76,15.59,20.51,24.25,18.81,21,32.79,41.93,54.25,60.48,15.35,13.27,27.77,31.76,41.67,46.35,17.07,17.91,25.41,38.12,46.14,53A617.52,617.52,0,0,1,1993,1873H225c18.14-44.44,36.41-89.38,58.78-131.89,14.07-26.72,33.06-52.17,50.84-76.48,24.49-33.49,65.54-51.49,93.39-82.72,21.21-23.78,45.18-53.73,73.47-69.41,26-14.39,50.35-18.12,73-38,21.53-18.86,49.83-29.68,75.16-42.59,15.37-7.83,33-25.15,49.17-30.07,13.92-4.24,31.34-.33,46.11-3.59,38.91-8.59,82.36-15.09,119.08-30.13,22.16-9.08,43.48-16.74,66.8-22.12C952.91,1340.92,966.5,1326.46,986.89,1318.29Z"/><path class="cls-10" d="M1419,2000c15.91-50.3,40.76-93.33,76.91-131.75,5.67-6,11.69-11.55,20.18-12.61,7.06-.88,5.55,5.43,12.58,2.57,9.79-4,9-21.05,19.52-27,20.45-11.67,50.34-7.79,72.49-6.41,25.55-31.92,54-47.94,92.43-60.57,21-6.91,46.12-18.47,63.1-32.81,9.59-8.1,16.67-18.58,27-26,10-7.13,20.92-9.08,31.72-14.11,11.84-5.52,21.68-12.41,34.28-16.72,9.37-3.21,21.62-4.65,30.08-10,8-5.08,13.67-9.07,22.17-13.75,5.35-3,8.12-3.54,12.12-8.26,2.48-2.92,2.36-10.28,4.56-12.23,6.76-6,20.58-3.36,27.94-7.91,7.87-4.87,10.55-19.4,19.48-22.13,2.62-.8,9.56,3.66,14.42,3.37,9.67-.57,22.53-9.24,33-11.26,17.42-3.37,33-12,49.26-15.71,13.07-3,26.78,4,39.61,2.54,17.26-2,32.25-14.16,50.49-15.66,22-1.81,46-.45,68.33,0,10.71.23,21.56-.19,32.22.15,10,.32,26.25,5.75,35.6,1.76,12-5.1,9-19,17.82-24.77,11.43-7.48,4.33,4.42,15.66,5.18,9.23.63,33.19-27.84,40-33.9,28.39-25.3,60-42.23,98.59-43.54,39.58-1.34,83.44-17,120.5-32.32,10.55-4.36,20.32-5.34,30.59-9,13.89-4.91,21.86-10.85,37.76-10.24,4.93.19,8-.91,12.71.67,4.46,1.49,7.38,9.72,13.1,9.18.32,0,21.14-17.67,20.91-17.22,0,0-1.47-.42-1.6-.5,5.13,3.39,27.59.41,33.4.6,14.52.49,30.18-.6,44.58,1.64,18.35,2.85,38.13,10.12,55.22,16.85,32,12.6,63.53,4.2,95.51-9.14,10.87-4.54,24-10.15,33.58-16.89,9.41-6.63,14.57-15.4,23.21-23.16v621Z"/><path class="cls-11" d="M0,1188s189.17,4.6,222.89,9.21,140.77,13.81,164.24,23,57.19,24.56,66,30.7-7.33,9.21-7.33,9.21,35.19,3.07,39.59,15.35,5.87,35.3,7.33,46,10.26,15.35,20.53,23,42.53,3.07,52.79,13.81,46.92,23,46.92,30.7,16.13,27.63,22,30.7,26.4,18.42,46.92,21.49,110,12.28,117.31,12.28,1.47,32.23,7.33,33.77,32.26,6.14,42.53,13.81,29.33,27.63,49.86,38.37,36.66,23,42.53,24.56,19.06-21.49,38.13-21.49,68.92,4.6,79.19,4.6,45.46-4.6,54.26,1.53,19.06,33.77,27.86,41.44,39.59,24.56,51.32,32.23,32.26,30.7,51.32,43,44,35.3,57.19,38.37,35.19,35.3,58.66,35.3,57.19,12.28,73.32,16.88,67.45,47.58,83.58,50.65,39.59,29.16,60.12,36.84,67.45,41.44,79.19,52.19,61.59,46,76.25,55.26S1811,2000,1811,2000H0Z"/></g></g></svg>