<svg width="49" height="48" viewBox="0 0 49 48" fill="none" xmlns="http://www.w3.org/2000/svg">
<path fill-rule="evenodd" clip-rule="evenodd" d="M40.6223 29.4602C34.5691 35.5133 24.7551 35.5133 18.702 29.4602C12.6488 23.407 12.6488 13.593 18.702 7.53984C24.7551 1.48672 34.5691 1.48672 40.6223 7.53984C46.6754 13.593 46.6754 23.407 40.6223 29.4602ZM17.3063 32.2696C24.5695 38.7984 35.7561 38.569 42.7436 31.5815C49.9683 24.3568 49.9683 12.6432 42.7436 5.41852C35.5189 -1.80617 23.8053 -1.80617 16.5806 5.41852C9.83286 12.1663 9.38742 22.8298 15.2443 30.0946C15.2177 30.1177 15.1917 30.1419 15.1664 30.1673L0.43934 44.8943C-0.146446 45.4801 -0.146447 46.4298 0.43934 47.0156C1.02513 47.6014 1.97487 47.6014 2.56066 47.0156L17.2877 32.2886C17.294 32.2823 17.3002 32.276 17.3063 32.2696Z" fill="#A6A6A6"/>
</svg>
