<svg width="788" height="788" viewBox="0 0 788 788" fill="none" xmlns="http://www.w3.org/2000/svg">
<path d="M774 394C774 184.132 603.868 14 394 14C184.132 14 14 184.132 14 394C14 603.868 184.132 774 394 774C603.868 774 774 603.868 774 394Z" stroke="white" stroke-width="27"/>
<path d="M523.541 193C530.874 191.667 537.374 193.333 543.041 198C548.708 202.667 551.541 208.667 551.541 216V472.5C551.541 496.167 544.874 514.667 531.541 528C518.208 541 499.874 547.5 476.541 547.5C460.541 547.5 447.374 543.333 437.041 535C426.708 526.333 421.541 515.5 421.541 502.5C421.541 486.167 428.041 472.5 441.041 461.5C454.041 450.5 470.874 445 491.541 445C499.208 445 507.374 446.333 516.041 449C516.374 449 516.708 448.833 517.041 448.5C517.374 448.5 517.541 448.333 517.541 448V283C517.541 282 517.041 281.167 516.041 280.5C515.041 279.5 514.041 279.167 513.041 279.5L325.541 315.5C322.874 316.167 321.541 317.833 321.541 320.5V522.5C321.541 546.167 314.874 564.667 301.541 578C288.208 591 269.874 597.5 246.541 597.5C230.541 597.5 217.374 593.167 207.041 584.5C196.708 576.167 191.541 565.5 191.541 552.5C191.541 536.167 198.041 522.5 211.041 511.5C224.041 500.5 240.874 495 261.541 495C269.208 495 277.374 496.333 286.041 499C286.374 499 286.708 498.833 287.041 498.5C287.374 498.5 287.541 498.333 287.541 498V266C287.541 257.667 290.041 250.333 295.041 244C300.374 237.333 307.041 233.333 315.041 232L523.541 193Z" fill="white"/>
</svg>
